<svg id="visual" viewBox="0 0 960 540" width="960" height="540" xmlns="http://www.w3.org/2000/svg" xmlns:xlink="http://www.w3.org/1999/xlink" version="1.1"><path d="M0 185L11.5 184C23 183 46 181 68.8 178.2C91.7 175.3 114.3 171.7 137.2 173.5C160 175.3 183 182.7 205.8 185.5C228.7 188.3 251.3 186.7 274.2 182.2C297 177.7 320 170.3 342.8 171.2C365.7 172 388.3 181 411.2 181C434 181 457 172 480 166.7C503 161.3 526 159.7 548.8 160.5C571.7 161.3 594.3 164.7 617.2 167.3C640 170 663 172 685.8 170.3C708.7 168.7 731.3 163.3 754.2 165.2C777 167 800 176 822.8 176.8C845.7 177.7 868.3 170.3 891.2 166.7C914 163 937 163 948.5 163L960 163L960 0L948.5 0C937 0 914 0 891.2 0C868.3 0 845.7 0 822.8 0C800 0 777 0 754.2 0C731.3 0 708.7 0 685.8 0C663 0 640 0 617.2 0C594.3 0 571.7 0 548.8 0C526 0 503 0 480 0C457 0 434 0 411.2 0C388.3 0 365.7 0 342.8 0C320 0 297 0 274.2 0C251.3 0 228.7 0 205.8 0C183 0 160 0 137.2 0C114.3 0 91.7 0 68.8 0C46 0 23 0 11.5 0L0 0Z" fill="#6198ff"></path><path d="M0 287L11.5 285.2C23 283.3 46 279.7 68.8 279.7C91.7 279.7 114.3 283.3 137.2 285.2C160 287 183 287 205.8 288C228.7 289 251.3 291 274.2 288.3C297 285.7 320 278.3 342.8 278.3C365.7 278.3 388.3 285.7 411.2 286.5C434 287.3 457 281.7 480 275.3C503 269 526 262 548.8 263.8C571.7 265.7 594.3 276.3 617.2 280.8C640 285.3 663 283.7 685.8 279.2C708.7 274.7 731.3 267.3 754.2 269.2C777 271 800 282 822.8 285.7C845.7 289.3 868.3 285.7 891.2 281.2C914 276.7 937 271.3 948.5 268.7L960 266L960 161L948.5 161C937 161 914 161 891.2 164.7C868.3 168.3 845.7 175.7 822.8 174.8C800 174 777 165 754.2 163.2C731.3 161.3 708.7 166.7 685.8 168.3C663 170 640 168 617.2 165.3C594.3 162.7 571.7 159.3 548.8 158.5C526 157.7 503 159.3 480 164.7C457 170 434 179 411.2 179C388.3 179 365.7 170 342.8 169.2C320 168.3 297 175.7 274.2 180.2C251.3 184.7 228.7 186.3 205.8 183.5C183 180.7 160 173.3 137.2 171.5C114.3 169.7 91.7 173.3 68.8 176.2C46 179 23 181 11.5 182L0 183Z" fill="#2d77ff"></path><path d="M0 374L11.5 373C23 372 46 370 68.8 370C91.7 370 114.3 372 137.2 373C160 374 183 374 205.8 374C228.7 374 251.3 374 274.2 371.2C297 368.3 320 362.7 342.8 362.7C365.7 362.7 388.3 368.3 411.2 368.3C434 368.3 457 362.7 480 358.2C503 353.7 526 350.3 548.8 353.2C571.7 356 594.3 365 617.2 368.5C640 372 663 370 685.8 365.5C708.7 361 731.3 354 754.2 355C777 356 800 365 822.8 368.5C845.7 372 868.3 370 891.2 367.2C914 364.3 937 360.7 948.5 358.8L960 357L960 264L948.5 266.7C937 269.3 914 274.7 891.2 279.2C868.3 283.7 845.7 287.3 822.8 283.7C800 280 777 269 754.2 267.2C731.3 265.3 708.7 272.7 685.8 277.2C663 281.7 640 283.3 617.2 278.8C594.3 274.3 571.7 263.7 548.8 261.8C526 260 503 267 480 273.3C457 279.7 434 285.3 411.2 284.5C388.3 283.7 365.7 276.3 342.8 276.3C320 276.3 297 283.7 274.2 286.3C251.3 289 228.7 287 205.8 286C183 285 160 285 137.2 283.2C114.3 281.3 91.7 277.7 68.8 277.7C46 277.7 23 281.3 11.5 283.2L0 285Z" fill="#005de8"></path><path d="M0 541L11.5 541C23 541 46 541 68.8 541C91.7 541 114.3 541 137.2 541C160 541 183 541 205.8 541C228.7 541 251.3 541 274.2 541C297 541 320 541 342.8 541C365.7 541 388.3 541 411.2 541C434 541 457 541 480 541C503 541 526 541 548.8 541C571.7 541 594.3 541 617.2 541C640 541 663 541 685.8 541C708.7 541 731.3 541 754.2 541C777 541 800 541 822.8 541C845.7 541 868.3 541 891.2 541C914 541 937 541 948.5 541L960 541L960 355L948.5 356.8C937 358.7 914 362.3 891.2 365.2C868.3 368 845.7 370 822.8 366.5C800 363 777 354 754.2 353C731.3 352 708.7 359 685.8 363.5C663 368 640 370 617.2 366.5C594.3 363 571.7 354 548.8 351.2C526 348.3 503 351.7 480 356.2C457 360.7 434 366.3 411.2 366.3C388.3 366.3 365.7 360.7 342.8 360.7C320 360.7 297 366.3 274.2 369.2C251.3 372 228.7 372 205.8 372C183 372 160 372 137.2 371C114.3 370 91.7 368 68.8 368C46 368 23 370 11.5 371L0 372Z" fill="#004cbb"></path></svg>